<svg width="145" height="145" fill="none" xmlns="http://www.w3.org/2000/svg"><path fill="#000" d="M121.63 45.204c.714-2.422 0-4.204-3.437-4.204h-11.371c-2.896 0-4.228 1.53-4.943 3.236 0 0-5.792 14.163-13.978 23.346-2.645 2.655-3.861 3.507-5.31 3.507-.713 0-1.814-.852-1.814-3.274v-22.61c0-2.907-.81-4.205-3.205-4.205H59.694c-1.815 0-2.896 1.356-2.896 2.616 0 2.75 4.093 3.39 4.518 11.14v16.818c0 3.681-.656 4.36-2.104 4.36-3.862 0-13.245-14.222-18.805-30.497-1.12-3.158-2.22-4.437-5.135-4.437H23.9c-3.244 0-3.9 1.53-3.9 3.236 0 3.022 3.861 18.038 17.974 37.878C47.377 95.657 60.621 103 72.668 103c7.24 0 8.128-1.628 8.128-4.437 0-12.942-.656-14.163 2.974-14.163 1.68 0 4.575.852 11.333 7.382 7.722 7.75 8.996 11.218 13.321 11.218h11.372c3.243 0 4.884-1.628 3.938-4.844-2.162-6.762-16.777-20.673-17.434-21.603-1.679-2.17-1.197-3.139 0-5.076.02-.02 13.901-19.627 15.33-26.273z"/><path fill="#000" d="M128.008 0H16.992C7.622 0 0 7.623 0 16.992v111.016C0 137.377 7.623 145 16.992 145h111.016c9.369 0 16.992-7.623 16.992-16.992V16.992C145 7.622 137.377 0 128.008 0zm5.664 128.008a5.67 5.67 0 01-5.664 5.664H38h76.5H75h31-22.75H104 60h25.375H64.5h13.67-61.178a5.67 5.67 0 01-5.664-5.664V16.992a5.67 5.67 0 015.664-5.664h111.016a5.67 5.67 0 015.664 5.664v111.016z"/></svg>